<mxfile host="65bd71144e">
    <diagram id="pIaEtrtLPv3HG8r1JEND" name="Page-1">
        <mxGraphModel dx="1314" dy="684" grid="1" gridSize="10" guides="1" tooltips="1" connect="1" arrows="1" fold="1" page="1" pageScale="1" pageWidth="850" pageHeight="1100" math="0" shadow="0">
            <root>
                <mxCell id="0"/>
                <mxCell id="1" parent="0"/>
                <mxCell id="2" value="" style="rounded=0;whiteSpace=wrap;html=1;" parent="1" vertex="1">
                    <mxGeometry x="80" y="80" width="720" height="530" as="geometry"/>
                </mxCell>
                <mxCell id="8" value="&lt;font style=&quot;font-size: 36px&quot;&gt;Cookie Clicker&lt;/font&gt;" style="rounded=1;whiteSpace=wrap;html=1;absoluteArcSize=1;arcSize=14;strokeWidth=2;align=left;" vertex="1" parent="1">
                    <mxGeometry x="100" y="100" width="540" height="100" as="geometry"/>
                </mxCell>
                <mxCell id="13" value="" style="shape=image;verticalLabelPosition=bottom;verticalAlign=top;imageAspect=0;aspect=fixed;image=data:image/png,iVBORw0KGgoAAAANSUhEUgAAAMgAAADICAMAAACahl6sAAAAkFBMVEX///8AAAB/f3/5+fkrKysFBQX8/PzX19cJCQnp6en39/fs7OwPDw/k5OQcHBwYGBglJSVOTk7Z2dlTU1NISEiPj49dXV1DQ0NnZ2ff399sbGw+Pj6WlpaHh4cTExNYWFikpKTMzMy5ubk3Nze9vb2qqqp2dnbGxsaenp4hISFqamqysrKUlJR6eno4ODgpKSmyCedcAAAZPklEQVR4nM0daWPyLMyrtVrv22m19Xa67f//u9cWEgKEtm7u2ZtPW22BQMgdqFR+Bfzl4VJbjFeN3qYTVKtBZ9NrrMaL2uWw9H+nx9fD8lYbD7yqE7zBuHZb/vUo88E/T8d9NwoU+uNp8j9dm+5l3CmHBEBnfOn+9ahNWEb755AA2Ef/IyprTb+JhcRlGv41Bhnsxjk7uxx428NfY9GeXn+KhYDBvf2HaHRPOdvbG6y2b7UT/HuqvW1X15zF23y0/gqNd8ewOqu39aErmGsTHjazf/3uYf22cqDvvf0FKq23wDG1M/qagYgAf+b4NDj9633frrnQqFYbhYhUvpwfd6L6v8Tj2LNHMBvCn5RAWES68HA8s6nsevxnaDRXZufe8FivHOC/uAiRCzw8VNrHobXT5qN/gka9Zvbci7I1aAO10U3CIrKVz4KMjLo1c32D6B+oYUnD6HV1hF7ngFgRIqBYTuT//tFUDRrJL6PhR8ZyTM7qx4gZNCJCyCWBZ1P17DDR2/XIb78AS3N37Oiv3ABDeEb46hSeadN+M5qe/6JmfLN4zEn7fSOfjsmzuU5FKQB762sfv5ltb7RZeiH4NbOrBwVo4gE2MR31MtvJPaqsw7Ju6bdNRk2IfgWPcGL3pI+5EsuHH/Rh67Tff2gCG/SvmD6cc60Pf0HQLwe0B6Xz3sg7bfFOp4C6l4JCv6gMvzFNP6DxcrPrvCHNe5GPu35Ah7NM2ei1kHWeU3Lb0zHWcZrmupzqv5gPH6lq9fVoPMHedD55vuxKKEv13eWsPUDOnW66hC5+cHO08S24kJari8wEWsC/nRfo3i1kh2/pv22qHXvxz9sHmJJ2A9luiH2/gLfggmzk7o4pBax/3oHRTbolkN8idrO8b8sB8O3qHZ4kdM+/SMpTPOaKH/pgVLz9vIt32VRDKYvh6tWYrOn2oFrpTj48Oz8tDWABUGdKnW6Uy8/7oPu8pv8klIoT91VL9dx62+9PiiFcWN7ANvVBuv6xtXWjTH1ocNbjfDDnejhsPVQIR5nOjipKUvW23BIyTdWHpGvvh56vRDfNTUw4aK8zi2Uh/zWUxoxrN9YlnFgaHg8u3yz+xA1d07deiEnzXbLlQLCFFnwp/g3lxHTeisZl4PFY1B+o9W3TGizApH4krEZwUjSsBG0RibQ65jZl4vHQab7vi9xajeVh0v3Q1u8rewiGvDDPK5rm2a85J5nB4wcCi0wfsagcmOwsb4jYnlJnF5r9znjFG/N7mOJBuv6miD+rkX2MyGR/2K+GU22qBQg7sZ4t60xgz8zzFxdUOKnfeyP1j/ctVThUTpotcFExRaavJpmxbkdPEk4STeUAuqyzOFiY46ur9nqjSmWM/12/s03U55/pdBJMNMpuX5xRnprZ5IfrzX2s0etSw6PSVj18Y5soid4Tshgx8bRpGbkG9/jQWLp6TqBUswTbsHI94UQiUuBpCb/E1fVAEAMmW/1N09gOFitHr2DSV1cLkxYn+ptjDQ+6XYvMaAvU8JTm2cx2zcBQlnR/1OCxd5E3zfU3EcGdxR0MM7A70PCgGvjwOTwu7Ifhx2oemfvNV0zBGwpXFA5SE98oGwfZv5RfX03+EdZWqxplZ8qF8xRxtdDV0Ct2yKC76xOWHQWQZqqgcQxr3MVNXGxktnCb9J9xESlToIS3rwUzuwHWAxpVtUOWDx8GMJI2TJdXwuxXFLwofhkgee4j1GRieIITQWTx3WoT6bcUU8U2vfJ68GcJglye5mM5cIzwfMKPOBMkDIcKKIo/pCzBF/14PD+5HXJHHNTc+Y4ByCYfMHREjw4ZoYz9cmPMx3af/Sv0q47DcB5R7aakq6uuOS29E6cWtOXeE7o6mvWSaojOgkIHFQXUSJBWhFksOWyP00nDk6bcfJULaFFvQwr9i/0dbD0xmW3QUNN9rOsssI81NWt/adscAZbVnm5/Tf21KcRl8KjbEdu9pXUCsjLKBu6c6nR0MjqVnNUISWxOS5NHw2RYDpOzbd4NyizJ3fqMMf2B4uW+Q1lnq8FC4fLt2cFX5S6EdTQ3yYFTmUu4h5guq2DukbfkLAFXswLW6suMDy0Ze0UC8CDJYhrmZLNfllgSZFl9Lc5mssVRxhFQUT+aPQkgFqBtQVb1uRDW1MDsqEnf7fStr5yAO/XSWpAmLCHUjk819ZDV0A2b3LDpJRBdP6mdYotnJeTdRQsZ0af5ngnI7lM9LkGK6RS5gWybifGSaF4WCZb1ZQCmIVRXCeVERY5aZPdCuYCkE9TqIofZbFixTr8V+r0keA77IsEeJb/rCWJCXrflvwNQCqAUg1kakIfTlkghYMOYjM7wJIbaf9ITmTeeTBThTHw8xhTUYDwwD16+EowGjFrx9m6nvsm2zYbTiJAmTd/u4TGovc6+U9+wBMYdtBSiSJkA4W6npgJ9KvmhBtBOHCuO0nhys/ifCJdcI0Ml32VjNgVRKxI026gY4N/AhOrwHhN0TFifUsBpHfO/E2FpjXjK4zdwdCtGfNcftiKi5znccag95jm5UNVw2FOasmDQUNjjKA4nkFni0amnzfp5q3EMx5SjhcUGZgT4wOhNR46EQ9UAbVez36C3iDU0yCc6D8iA57BqkG5EcKAOZMdmV8XxAeg2p9cUmm9M5qmDw2L2jVuUIGXx5Md7PKvzY57iI+3ZOOcVTk6m4DDlk4LpriieZaqIEpjsIDndtRzvwfox15scbbVVczogHc6VgmFSZXy4ZixcXi8WkJdOWU+SPAWn6W7Vcnc9YHQfotLiMvBpgkO1N4uNaUYNdx6ZKJV2B3Bg0tU1wieGtdiKZ1rPrniJlZDVuNMpmavmldhiO3wOdBMgFUXIYalL2J9abM3hPvWZKAdhHMhIxYKPSIK/g1uXBGICSOVHETEhHo5l8g0m9pt0rpHrwRZs46rkqeLt7rLZHHXzVDxkIkOQSqjyKcbEmm486+eMdeUE1DwlGdTzPZ7dWzT7vKroRO9zFt1YFQ7Zeh+YgqWE84FZxyZhX0UytP2baBTbgiuMZ44Cmd6MyeFAqkEDFseCfJvNqOR9rWzXSDW27xB5i6HZhutVfrHSam0QGmoUK3hyhid7eMKG7VhJgqnGp/UYfVMYIMKWUZVrWk8ycERGdQhmuu6AZRhI9JYXtou8ZTNeg1Hicao+DvUx5X4SzdNZ7eH0q0ADaCTomqCqeMJSAAcTigpKsPfsX5/oLOi7zzI6g3mU1mHiEnK6FDoowKjcrW8okUNKLL3UO4JOgUDNSstVqcPCTG0WzX2qVy8gb6nUb+uD7Auph1N9gL0OmN+0LLpq5q8yHdcPiJ+tDI3xU1ze9cGsBmRNWkCV0xuBKDhx6duMALsDsm6zXC8fZrCaidUsAjuxeYMF1ySHJJ9OngEwmq6dN+DtZ7XL7Zw0m8n5dqnN9vYoG8BM3LWlE06WAvlwViT0wmvcS9PLDhDL34018yZTW+etSx5C4CqVkLjKAuuwqSjhzSgpWMDlyrnjczWkMG7pruZ57EwaCWM9w0CG7evcPH3aHlQJqFbay4XcN8e0SKyMBZkq5FNV3FsUFHs1F3RZVoKbn8yW7VwbOhJ4y34HccxNwDEzFjyx8lTsjksUGGgRQaE8LLV2+ewnMg54z6Yf0KWCokFo8QHBNUbqSb+kaXJTpOSJBST8xJWPRgB6tMMLIFwL3B0pkPiA8H+p+f0snfFPuJzwBiJJ5GQIKoAR3K1fgDpyPZEA4PcQPF5RxfyJxLC22lfCmhJ8b5Xrk0EA7cw2hYAz92oS9ABC/Vhba7OdxQeE1EXDqAF4hJeaE2Ig/hBVRWGqRZaXrLuu3TS+dY6gFVgRW+rR8JSEmWpklO5xqLiQ0F7vxZhgajG34uCQOQI2sAESeCKEamtv5DVfUh75pVhgnbF27QoDTt9DdKFyiPXt+bDxwMDqFuhcWDoDA+MZjBQIqhTLKvCrcskynKYUQBtgMLNOTEy2BobldOQBREazVZZFAJrQbJszdGwbkVk25cSAobGcAN0rsKkKtUfoPYEHrAQF2wrQZj159tSyiMC+BJ2ddcQh0wLa50hAAyBZzBlk+S1sPVD+WlxTNiJs+jj82Ar0NjVow+uQ2XxmmtIAlg7VElalkrMXIN1xNZc2aTGbndSlCuXUiGN1Zdk5aC1Q6eXO7xUAvB/rzQTF1iN9YfxMzpKityXj7bY3O7DfoCHhU6tLPW8bE309UlXlqH2qpuc2bDhhiEoMEoHgoUdTNfEv84bmpWid9tBKoH1KAZZ5b/3CgVQexZ5RgaynKvkUcxNcPdsTBcoiAnACO1EfmmUtSwOUy0ewG3WoRlEeAwFFf4KygCnlqu8IYLTbU5djc+mgGVhAFAhl651bRNkVtPauHuydBhUCzKTtNMXB5LdhmLwyGE74ST8ug8eFtCJiB21NHXCZuADIKW01HhHJacEMi1SBIXcpdvtCk+RGIx19wV7NBEQuZq8AhbDdF/rinbFSLZqPoxa/6WlujXsOgYVT7ZwaqCGw8/3snAQFyF9syYY8JOY/NaL5CHIcR/1Xb8JFIdMI4MR4UU4pL0S9mWNaMTZgb3aUshzjYaL5ACA7bpZK1x/WjgnOaSs51oaWRMNqdad+xtcsIsuz2a8t1QiEbg87phud+aCvt7kOBtcNv5w94LQtdyCCTa5BzTDHHmEloml2dd7xfVzckCu5y4UxbiX0Lc/eTWOGLc5GAsmxRwJgFn6LpBtqbafLbcRGM4hLHtIooKdYJ41+mmSsjF81oDouYJ49ku3S5n3YeQhZnDLlKYCkIOTEhAO2P0pEeQR0aoRkjHg0SUxTQaxwEVQ7w3tTn9c8eyQmcflPEI/om23A9sXONY94WMu11wH6kcagrUlpIYuGZcPStzSTQRUc5dkjGpECn8ZgOObWscHw9M14kh9CfPBmIwHVJtMlBnrhiRZzVkMsZY+kgCYIMjxkzyh5LJdMK+c00M74YklLZP3IOOzeHJzEbY+4EEGDFtMcMDy+YdQzP1kv9gY2nf1izZ3Eapco2evvQsTmaQ5DWwW+sCVkNritYntwAsJkF6+nUTRdx7vEqbYgxSPBo+KnbFIj+AdgO+h483SgWItZXUh0lsL87nxAswA1EiaEH/IZCLYeMuVem1ArmlYXGsz+Rwf8JLSlLD0aHT80IWDJnvdkO7Gt2Ndme9HZkapcMfPCn6mos8FgM523kaqr0V5ckkwGANse0SpVPRGX1wEVLpu7BiXtQg4YPc5zNuubUUg7kJKQXxt8dMCdDtDISTUdzXq9WY61Zh0zqIBfaO0kCpuou+TXovROY/5cRoP4KKPC3MNAXKaOK9mVvsKQAl1hewtlwIV1r1E+WclvVrkvscanixlStsS5SqgB6nBuXcyu8g3rFHD6CnYR4w6oxvyrdDo5r7rWEE8JuqfDcHX4bxyF5aaUnzW5bOYkcApDxSBwLoVDE+2OJGcaDDej+Te2RqYucbdOvBCiSC8m0HMSHGMoHKfmj9nwfAvnl3EHZiv6EALGY6lamk4CmQxvzSjJSeA5XZtVzinofgxHDriQrpyDFpVKI1XeT1fR02eOJJbZo4WchIn1Swa6/4vja23tDdxFySTw5vj+zRnNp2ey6IHyZRxrw9USy5jTYmROAhqe57kXDHEEegkLSzg6BxSjlTlxWFnk7x3R/La2UXNSF4zEMseO7n58wrqK2qbqQsg2/agMPs1fdy2lOm490kMxOWBxZtbbaHgZU4iLWob57UxTnPVEej5d1khgPlduJIHGpuXWgapjjKy0GAKTXKRJPT852MiTEOjgZtYU8Ts50V9a5QqWepqqNDg7vsU2FIuux5/8O4jt4ZoeHW+SmtbyxJgvXtxxSf4AVomroMMAWnLqk30RwAtdCXhKM5SHiprUwkbXJWxYPBxZ2wIsMSCfS+M0x6UqVPHCF5Qp7RBEHDiKDHkjMQXPMihhb1+NLxfWQVsLfskGU3wirSfwN1h0/+H0LrkKYVwHMzEncQAiMuKIox9ZhetyC2jiNuPOpj0LwiW2x+UiFWdeF2vff3HFleAKElqf4ZegheuoR6ttCollhodB+qNYW+jG3mHglgmMS6gz5fV0Qbny6C3LU1RHDhXDByhoVmamjiR1eYgWH+GuTxmPn7t8z6r8rC7czqjrg0LE1Nq+O/s4IVK/7fLCLR8yf+Cs82vZHkS378a3wgJ5p12EMEjbv8mUFpXxi9bzrC8rWnrNedmirTIHjJX0b9ue6q7lqc6BpcXAc4qOmZBkiQpD9Iih4s2W39HyPwnIjYrP1PDtKthcr6B9CIm2+ZLp1NYKVBdgNNpDZtCrx4qR2a6JR0/aQG3Xb74ea79PDnkUZ0e+G3SQ0LczM56LylUMgjMMdGN6/Gxnk+TQsy0U849KYKKrVyzXmzBrZMcjhjerYtGcpZPlMjGiA1ItwdNGW8yJPQVuGQwVKIwmvoZHdaPNcwktKmeWAPQYtA+sWmLCbJCi40SUKNkoMX/S8DA0g6U7KG2ZPc6sAG+o2TsqtVtgopjpAOVi4UncuAPJ9U4XDQ/TUF5+OFR02Zc/wnMj+ff6H4bZFqrfUkyUBAnQT18ckkHFoaeUYe/QJkRtO8V4o0mqWelhNxBS5/zVKyY5i/ZWJ8dy33GvFBdFqLqwu4pYdwiR9lh/E2PGXujEiI4t6RwsWCOPpmHOVcNbZBdlTgrDzvpdTufsucp1wrv+uty/cg6FPmH4XBvOm+qaXA5FY4mflzlHXh2Y9DGyVU4nHilorh7BUY1zUYgOlH93IIPJZolflzq6TSnc3tI6Ni0Xj4rmfBtxiKA1lXveBYuJd1C338Rl8Kj4qKcMTaIuwiP9+igUFFDS5JaD5FWx2eZF0QgGk4vSfKzj3RygkkZvejGaiUdrerozE5s5qIGt3KAlbNt2dPNN6ZicSLi29BETyKN6oaaBGEpqdhtUh7OE25cJTtrtmrnWJNQn7PFcbFPUe7mohIiXw73NQEK+90kZg37NjLQQgkKTpVv4BtsUvU5n63/rUFayDDcq03WVEzB8wY0wYCtSBYoq4kNyxMhT952EqHT0w0qbphwsUAyjVvaCG2Fw1VGD0q7pmbSfO0qZgNpYQ+N+gL1cfh/VjTyTsySggNjLrbWkTt5xveKryXzyMBlFT1OwqCRsTG3jBTdNJdiYENnapXIzn9KZy03qAqUNpKnSvmY9neqU+AzKKrfwvvEaElJ64nX7nfaW+lyVYH76uHVCXP30W82V3EgUMWjXWPm1/kNMFJaHhotOta/dQtlFDnWqJJrOlrKSpbITvnHFjSKn7OIP7WYp782jHRnf7AuKJmSepbaUOFGedltvkA6cJJ98h7Hol0Q8rCI2qVe76g0Yme4lP0eRbs6BoUOftlm/c5ap7SteM3iiFpgMQE1NxpiWXCqKxkOA3qjpJepStxTfCW0VgDvkSHBIpTEH3+QrJKiYCcK67eTW/XdA3FSHeLMHDaxU90zZDoZThj0RjN++zWpmtnE0DRRtijCBhgTPjattMkBFVNMSE6PpjmVUfj9Pj1z84Ql2YZLXdU0GSO79ReBuccVwSky6Whuuq8+l3ibJCv8GdMkFEAIT6z7ansrXggWks8/dq4vXiyAPCiODkwQyLEMyLa8/uq4wUbQEJZpN02OCDgTz3l8XIuZNws1303GxkutH1uNnF3JhAkUGkqv6U8th8pmmiSfwH1WRWUToTcLhxXIldSCBj0Rnf3pFmp5GCwGZrh1WD8ZH7qJjHhFEOTqObY8rnvJErFPvBVeEUzsN/eNn91k/+r2//P3sOaUZn8AINU01/jkeevh9hTs7dp4Er6kRPCJOJ/AAR9yiFPeiyzYpJuquWf/iQKW/ne5QR7UR6e6iraOEaRCjIplQbuxIen0eqFMoUOLViUo1LbEYn6bHQ4Iy45AcjtPT2CzFIPCl0KisKZN/wfWUADFtd6Y0N//GZt5/Bya0VIuS3iv2uQKtXHJAFZPmW076TlnQXV1nutCsu+kHkFCy9mpUW2hfzNO/ngNvop3GVdeSaHovMKR1WGqxjYbefmuaw47zYW84GPXbRhpPW7bFYBR+vhlWd3c9fJrGOuOLMdBQD62Ov38pZR7oseuNdeNN/XBalUYmWH0cTHXWuMPGe9ENxzbsdIncYPZhPblvGwVbJmjM7lz1202PzPV/rF65oWtw25XjaPfRbboY7nsGQl5vP1xMb0vHofSGiTh5wS3jOTA1BrfK5Y7hKDkfdrfb7nBORrker52BRvAyae6CxORPJY7MKIJ6bIZ79z+0PsqAH5kbuv/xIya5tK68CRxpe68GpiJw4j5hMh/aMdNYiQMSXwQ3W1sMtsencWkftza7/vrR2e3Pgkr/p7g4jt7goXmfMEJHpPL/SwhPrOzrzdgCaR38ZL1lj7oIPp6K4rwIWjwqj+HsF9MdLy380W662Lu+O/0FGim08s5F8Hqfw8Upul/iB1zu0Wkx/DRFJIVN7a/QSKG9dhuJT8FXmbvnfxcOZc5Xz4cgt0j230F4d1++VwKs8/D/ErpTR71OIRbTXzCdfgZhPCt1JIqC/iz+H60FBad8sOH6kDd/PdwC6N6iXNPKa2yj3f+OnpzQPcfR23ayH/Q2Hc/rbHqD/WT7FsXn30LhP6Raik4VxKFdAAAAAElFTkSuQmCC;labelBackgroundColor=none;fontColor=#000000;strokeColor=#000000;" vertex="1" parent="1">
                    <mxGeometry x="130" y="240" width="120" height="120" as="geometry"/>
                </mxCell>
                <mxCell id="14" value="&lt;font style=&quot;font-size: 14px&quot;&gt;The number of times clicked&lt;/font&gt;" style="text;html=1;align=center;verticalAlign=middle;resizable=0;points=[];autosize=1;strokeColor=none;fillColor=none;fontSize=36;fontColor=#000000;" vertex="1" parent="1">
                    <mxGeometry x="95" y="400" width="190" height="60" as="geometry"/>
                </mxCell>
            </root>
        </mxGraphModel>
    </diagram>
</mxfile>